HIERARCHY
ROOT hips
{
  OFFSET 0 10.6860622 2.3727825e-15
  CHANNELS 6 Xposition Yposition Zposition Yrotation Xrotation Zrotation
  JOINT leftUpperLeg
  {
    OFFSET 0.6642549969 -0.9402397400000004 0
    CHANNELS 3 Yrotation Xrotation Zrotation
    JOINT leftLowerLeg
    {
      OFFSET 0 -3.997221335632195 0
      CHANNELS 3 Yrotation Xrotation Zrotation
      JOINT leftFoot
      {
        OFFSET -0.13777839790000004 -4.6145792000000005 -0.22186036399999998
        CHANNELS 3 Yrotation Xrotation Zrotation
        JOINT leftToes
        {
          OFFSET -0.03777410834999995 -0.9130806927000008 0.85230013
          CHANNELS 3 Yrotation Xrotation Zrotation
          End Site
          {
            OFFSET -0.03777410834999995 -0.9130806927000008 0.85230013
          }
        }
      }
    }
  }
  JOINT rightUpperLeg
  {
    OFFSET -0.6642778626 -0.9402397400000004 0
    CHANNELS 3 Yrotation Xrotation Zrotation
    JOINT rightLowerLeg
    {
      OFFSET 0 -3.997221452859387 0
      CHANNELS 3 Yrotation Xrotation Zrotation
      JOINT rightFoot
      {
        OFFSET 0.1377926176 -4.6145792000000005 -0.22185782299999995
        CHANNELS 3 Yrotation Xrotation Zrotation
        JOINT rightToes
        {
          OFFSET 0.037780746850000047 -0.9130806927000008 0.85230167
          CHANNELS 3 Yrotation Xrotation Zrotation
          End Site
          {
            OFFSET 0.037780746850000047 -0.9130806927000008 0.85230167
          }
        }
      }
    }
  }
  JOINT spine
  {
    OFFSET 0 0.13988381660000015 0
    CHANNELS 3 Yrotation Xrotation Zrotation
    JOINT chest
    {
      OFFSET 0 0.6191039003973773 0
      CHANNELS 3 Yrotation Xrotation Zrotation
      JOINT upperChest
      {
        OFFSET 0 0.9855186130586943 0
        CHANNELS 3 Yrotation Xrotation Zrotation
        JOINT leftShoulder
        {
          OFFSET 0.1807663869 1.5087829790000005 0
          CHANNELS 3 Yrotation Xrotation Zrotation
          JOINT leftUpperArm
          {
            OFFSET 0.5985063006419806 0 0
            CHANNELS 3 Yrotation Xrotation Zrotation
            JOINT leftLowerArm
            {
              OFFSET 2.2993332369501065 0 0
              CHANNELS 3 Yrotation Xrotation Zrotation
              JOINT leftHand
              {
                OFFSET 2.395047042602395 0 0
                CHANNELS 3 Yrotation Xrotation Zrotation
                JOINT leftIndexProximal
                {
                  OFFSET 0.5766295810000004 0.04556643899499946 0.17265095988184
                  CHANNELS 3 Yrotation Xrotation Zrotation
                  JOINT leftIndexIntermediate
                  {
                    OFFSET 0.2957229000000008 -0.019352197700001517 -0.007932640616999987
                    CHANNELS 3 Yrotation Xrotation Zrotation
                    JOINT leftIndexDistal
                    {
                      OFFSET 0.19008243099999922 -0.012484908149998475 -0.002786250786000012
                      CHANNELS 3 Yrotation Xrotation Zrotation
                      End Site
                      {
                        OFFSET 0.19008243099999922 -0.012484908149998475 -0.002786250786000012
                      }
                    }
                  }
                }
                JOINT leftMiddleProximal
                {
                  OFFSET 0.5834975091000001 0.0524350405149987 0.02204081888183999
                  CHANNELS 3 Yrotation Xrotation Zrotation
                  JOINT leftMiddleIntermediate
                  {
                    OFFSET 0.33880573540000003 -0.019871473270000717 -0.00000971183179999946
                    CHANNELS 3 Yrotation Xrotation Zrotation
                    JOINT leftMiddleDistal
                    {
                      OFFSET 0.20676022730000088 -0.012221336379999448 0.0001471936708000235
                      CHANNELS 3 Yrotation Xrotation Zrotation
                      End Site
                      {
                        OFFSET 0.20676022730000088 -0.012221336379999448 0.0001471936708000235
                      }
                    }
                  }
                }
                JOINT leftLittleProximal
                {
                  OFFSET 0.5344154683999995 -0.012880921405001189 -0.24414037221816004
                  CHANNELS 3 Yrotation Xrotation Zrotation
                  JOINT leftLittleIntermediate
                  {
                    OFFSET 0.21758961730000093 -0.011650919939999227 0.011893592810000034
                    CHANNELS 3 Yrotation Xrotation Zrotation
                    JOINT leftLittleDistal
                    {
                      OFFSET 0.1475273964999999 -0.008152365682999818 0.006001092492999946
                      CHANNELS 3 Yrotation Xrotation Zrotation
                      End Site
                      {
                        OFFSET 0.1475273964999999 -0.008152365682999818 0.006001092492999946
                      }
                    }
                  }
                }
                JOINT leftRingProximal
                {
                  OFFSET 0.5799399463000003 0.026911854694997794 -0.12150566991816003
                  CHANNELS 3 Yrotation Xrotation Zrotation
                  JOINT leftRingIntermediate
                  {
                    OFFSET 0.26167887460000006 -0.013480186499999602 0.010996293000000053
                    CHANNELS 3 Yrotation Xrotation Zrotation
                    JOINT leftRingDistal
                    {
                      OFFSET 0.17667108799999987 -0.008990287899999228 0.0055541023999999065
                      CHANNELS 3 Yrotation Xrotation Zrotation
                      End Site
                      {
                        OFFSET 0.17667108799999987 -0.008990287899999228 0.0055541023999999065
                      }
                    }
                  }
                }
                JOINT leftThumbProximal
                {
                  OFFSET 0.11018806699999972 -0.09448718900500053 0.17047963138184
                  CHANNELS 3 Yrotation Xrotation Zrotation
                  JOINT leftThumbIntermediate
                  {
                    OFFSET 0.31062601459999983 -0.08126270900000132 0.15443142000000007
                    CHANNELS 3 Yrotation Xrotation Zrotation
                    JOINT leftThumbDistal
                    {
                      OFFSET 0.21627175790000086 -0.08833193599999878 0.018771167799999988
                      CHANNELS 3 Yrotation Xrotation Zrotation
                      End Site
                      {
                        OFFSET 0.21627175790000086 -0.08833193599999878 0.018771167799999988
                      }
                    }
                  }
                }
              }
            }
          }
        }
        JOINT neck
        {
          OFFSET 0 1.5463305265074576 0
          CHANNELS 3 Yrotation Xrotation Zrotation
          JOINT head
          {
            OFFSET 0 0.8456443600000344 0
            CHANNELS 3 Yrotation Xrotation Zrotation
            JOINT leftEye
            {
              OFFSET 0.30408573140000006 0.5104519199999995 0.1276382305
              CHANNELS 3 Yrotation Xrotation Zrotation
              End Site
              {
                OFFSET 0.30408573140000006 0.5104519199999995 0.1276382305
              }
            }
            JOINT rightEye
            {
              OFFSET -0.30409491089999996 0.5104519199999995 0.1276379445
              CHANNELS 3 Yrotation Xrotation Zrotation
              End Site
              {
                OFFSET -0.30409491089999996 0.5104519199999995 0.1276379445
              }
            }
            JOINT jaw
            {
              OFFSET -3.155239131000001e-7 -0.11984121820000082 0.60178107
              CHANNELS 3 Yrotation Xrotation Zrotation
              End Site
              {
                OFFSET -3.155239131000001e-7 -0.11984121820000082 0.60178107
              }
            }
          }
        }
        JOINT rightShoulder
        {
          OFFSET -0.1807303465 1.5087829790000005 0
          CHANNELS 3 Yrotation Xrotation Zrotation
          JOINT rightUpperArm
          {
            OFFSET -0.5985063796536958 0 0
            CHANNELS 3 Yrotation Xrotation Zrotation
            JOINT rightLowerArm
            {
              OFFSET -2.2993322059002854 0 0
              CHANNELS 3 Yrotation Xrotation Zrotation
              JOINT rightHand
              {
                OFFSET -2.395045314457259 0 0
                CHANNELS 3 Yrotation Xrotation Zrotation
                JOINT rightIndexProximal
                {
                  OFFSET -0.5764487688300002 0.0441371204405987 0.17361932004999997
                  CHANNELS 3 Yrotation Xrotation Zrotation
                  JOINT rightIndexIntermediate
                  {
                    OFFSET -0.29573011380000047 -0.01934826376999843 -0.007698921482999974
                    CHANNELS 3 Yrotation Xrotation Zrotation
                    JOINT rightIndexDistal
                    {
                      OFFSET -0.19008373999999884 -0.012503266380000655 -0.0026365778999999897
                      CHANNELS 3 Yrotation Xrotation Zrotation
                      End Site
                      {
                        OFFSET -0.19008373999999884 -0.012503266380000655 -0.0026365778999999897
                      }
                    }
                  }
                }
                JOINT rightMiddleProximal
                {
                  OFFSET -0.5834852037300005 0.05211639405060153 0.02307162440000001
                  CHANNELS 3 Yrotation Xrotation Zrotation
                  JOINT rightMiddleIntermediate
                  {
                    OFFSET -0.33880114510000003 -0.019952774050000954 0.0002455003561999819
                    CHANNELS 3 Yrotation Xrotation Zrotation
                    JOINT rightMiddleDistal
                    {
                      OFFSET -0.20675694929999955 -0.012273788999999091 0.00030209124000002766
                      CHANNELS 3 Yrotation Xrotation Zrotation
                      End Site
                      {
                        OFFSET -0.20675694929999955 -0.012273788999999091 0.00030209124000002766
                      }
                    }
                  }
                }
                JOINT rightLittleProximal
                {
                  OFFSET -0.5346811737299992 -0.011214256288399227 -0.24363941305000003
                  CHANNELS 3 Yrotation Xrotation Zrotation
                  JOINT rightLittleIntermediate
                  {
                    OFFSET -0.21757715980000092 -0.011771559690000988 0.01201554387
                    CHANNELS 3 Yrotation Xrotation Zrotation
                    JOINT rightLittleDistal
                    {
                      OFFSET -0.1475201849000004 -0.00822055339600003 0.006082065407000015
                      CHANNELS 3 Yrotation Xrotation Zrotation
                      End Site
                      {
                        OFFSET -0.1475201849000004 -0.00822055339600003 0.006082065407000015
                      }
                    }
                  }
                }
                JOINT rightRingProximal
                {
                  OFFSET -0.5800810755299999 0.027657985680600072 -0.12066365025000003
                  CHANNELS 3 Yrotation Xrotation Zrotation
                  JOINT rightRingIntermediate
                  {
                    OFFSET -0.26166445029999974 -0.013623118409999302 0.011164098990000045
                    CHANNELS 3 Yrotation Xrotation Zrotation
                    JOINT rightRingDistal
                    {
                      OFFSET -0.17666387530000027 -0.009072900100000503 0.005668185599999959
                      CHANNELS 3 Yrotation Xrotation Zrotation
                      End Site
                      {
                        OFFSET -0.17666387530000027 -0.009072900100000503 0.005668185599999959
                      }
                    }
                  }
                }
                JOINT rightThumbProximal
                {
                  OFFSET -0.10997596379000074 -0.09577489355940072 0.16989765924999997
                  CHANNELS 3 Yrotation Xrotation Zrotation
                  JOINT rightThumbIntermediate
                  {
                    OFFSET -0.31036620999999986 -0.08229339117999834 0.15440884469999996
                    CHANNELS 3 Yrotation Xrotation Zrotation
                    JOINT rightThumbDistal
                    {
                      OFFSET -0.21631306399999906 -0.08825326400000111 0.018656797720000014
                      CHANNELS 3 Yrotation Xrotation Zrotation
                      End Site
                      {
                        OFFSET -0.21631306399999906 -0.08825326400000111 0.018656797720000014
                      }
                    }
                  }
                }
              }
            }
          }
        }
      }
    }
  }
}
MOTION
Frames: 4
Frame Time: 0.03333333333333333
-0.051354147493839264 -0.09765945189209013 -0.015542949549853802 -8.08021574042837 -4.379838044790152 -3.9107532703496126 15.441831478568952 -9.824273433107933 8.899864091229635 4.478693245477973 12.279198186724715 5.053002828918422 0.36018235388652226 0.9837130694788749 -7.562131555650534 -7.342918917660523e-7 -4.938273339630697 -0.0000012740294358065708 -10.008271289614601 0.8683124445045666 4.2864890469998445 -9.12030952881012 7.769659952739047 -4.068672275852187 0.008746161329638768 -3.8059607956391512 2.6810718333150003 0.000009296321796707937 -7.420659553646913 -9.870196910891146e-7 1.4324478377156689 3.243934386131276 2.6652752471152255 0.2519517085563942 2.0644055859469237 2.6763005204791184 0 0 0 -17.350993566803336 0.9534243229825425 -12.858708054024312 -21.2669206520785 4.823136832365969 -68.79202715129048 -3.144008577879251 0.0011112650870800517 0.04057300075819435 -2.8848418496705275 -34.2090958958982 -4.294036990356593 -0.9270313789106399 0.027065154198673648 -8.444100213847454 1.4852986616928348 0.2199312439795253 -16.846054248287153 0.669218178222657 0.043864579702359116 -7.503381981082841 3.3944567614560373 0.11999249086635633 -19.518379901864296 1.5423281344912267 0.23756253072936367 -17.513157116969804 1.628527209021882 0.26559341732788155 -18.52621892568449 3.222600440044139 -1.0667685601061465 -29.056280154714567 1.4718056032211584 0.2158556059444692 -16.688570338108438 1.3944941212787318 0.1933439058172121 -15.788554500220954 1.8237984329460872 -0.6509850884359252 -23.98875336702322 2.32749266560185 0.5588880778822455 -27.00376672108742 2.0556966871262565 0.430290807948614 -23.64392611136739 0.31807094612607384 -1.6918761450386224 4.746172462115529 25.040399323345312 10.346816798102342 21.841563773396867 3.51259454253894 -13.862576381291337 8.137992389312737 0.7994881355826604 6.1604289208298315 -0.7551281631781988 6.03132036765034 -6.832474165445972 -3.02285192579777 0 0 0 0 0 0 0 0 0 14.441909111864137 1.199874888079569 14.673601240731307 31.893087955919672 11.82144948199609 66.05427904826986 7.915097964915278 0.007047130236498046 -0.10191437635323694 0.2863038034738039 -16.414894952849927 4.309808245526037 0.3701495930730521 0.5103435419707543 3.360826872419547 -1.1289375107268171 0.16594101189423935 16.722796345599296 -0.5017552848109345 0.03221622976416125 7.347980500580859 -3.5115297070884472 0.23536548562232334 13.955452121430868 -1.217629754252013 0.19372944017879762 18.079808557541444 -1.2825239168727802 0.21553651912330715 19.079751406931898 -5.702227170560904 0.9603995592461231 29.084540382577877 -1.424265279090623 0.2676459113959423 21.284508453372755 -1.3665445246708794 0.24568697959561428 20.38299319656961 -1.3047333901800895 -0.7661156291018183 24.258674311104055 -1.8993432224817368 0.49036271575541374 28.949765371737154 -1.71084369876562 0.39265378684474095 25.850433649067668 -0.7674665214112094 -1.3466498856629934 -4.752926141618678 -29.17486624370877 10.53637919098623 -21.724890565078482 -3.199718409401981 -15.808915701071673 -11.607747306969557
-0.05029267817735672 -0.09661517851562529 -0.015677284449338913 -7.588546618241728 -4.390402402817151 -3.920616420840972 15.44658897714626 -9.809844256674648 8.800614955952575 3.980214065394197 12.130623373205522 5.004570416238239 0.36298954448972787 1.0489902826631905 -7.515909688163875 0.000003222379837118562 -4.940182208857818 0.000001242699218502836 -10.022887899643818 0.9988580789883579 4.302950461447593 -9.099380129709319 7.628936741884893 -4.063245857615583 -0.4608999826685664 -3.7640224570607477 2.7300884489176687 0.000006023123196619843 -7.405857753742739 7.794959866477708e-7 1.4511117156155555 3.2345137375218243 2.6572517772378728 0.3195712496669577 2.0312817052164993 2.6357743367330335 0 0 0 -17.28063638825775 0.9591620541668925 -12.814855978920217 -21.75628013257223 5.0311146334676184 -68.42222260513489 -3.307849412536308 0.0012358974882249409 0.042705299032046014 -2.8288424716972744 -34.13632761324859 -4.409392489150766 -0.9331188443903249 0.031455493982538905 -8.4653609134423 1.483013992667315 0.2192508080665255 -16.819352249996868 0.6668509324869873 0.04356006256650208 -7.476715568351631 3.384903916543228 0.1144781287623813 -19.678744351822434 1.5430097564155825 0.23776989278767025 -17.521213010070316 1.6290675034331399 0.26576161254439623 -18.532587456953326 3.145501605695312 -1.144529806755006 -29.14502890863391 1.4820142526477804 0.2189258647772635 -16.807619801868313 1.404742403888919 0.1962596530533015 -15.907582753994605 1.762781852021181 -0.6817925529442693 -24.05981676596501 2.3575004024774513 0.5743083041295214 -27.38059226581039 2.0613024775921467 0.4327421149689014 -23.712336757905423 0.18067912574672007 -1.7645896956640592 4.760359213091122 24.93570269570055 10.31174485084745 21.833367350079506 3.5090982405680693 -13.863609663788132 8.140482454676635 1.4136660508937378 6.228605945791769 -0.2672358092805343 8.618400241944355 -6.428205591879701 -0.9010431481896712 0 0 0 0 0 0 0 0 0 14.483053327245338 1.2044838256622603 14.643841276296616 32.000752771938515 11.733476441683782 65.9767648045428 7.718896838394557 0.006699230396478353 -0.09940889606839015 0.012398779413840976 -16.570602590027118 4.94887830893713 0.41066638053672944 0.5046037167723847 3.314471513893979 -1.1361874204335312 0.16811580939610354 16.833345284185526 -0.509315813486873 0.03319857654552466 7.4592450707488345 -3.4463674274452183 0.21889403479619152 13.896386043985602 -1.2169491561373509 0.1935203978439369 18.069394917436135 -1.2818737577297585 0.2153181783101542 19.069675343271278 -5.645914142307426 0.9484536085396257 29.055108688954693 -1.4246293463012656 0.26778833306702815 21.290470238860923 -1.366928541340619 0.24582553232467 20.38893371593768 -1.3231408135035272 -0.7478828754130532 24.071731807947724 -1.8850098931468384 0.4824591016571497 28.71098686348018 -1.6962052522987148 0.38560884452302174 25.61293644441952 -0.7243998971147044 -1.3689322706806397 -4.739110238666775 -29.165126288571493 10.542204580654568 -21.72094492480441 -3.2001976668242484 -15.807416107757438 -11.609060354057494
-0.04949719086289406 -0.09606109373779326 -0.015931664034724236 -7.349372232914588 -4.390975686743301 -3.9230652203758622 15.448505696110963 -9.805206223976771 8.748688180369735 3.738501692332031 12.054759829991827 4.974876580381406 0.3645111364131495 1.0850507570198376 -7.490795820872203 0.000004083897201262859 -4.9409269050097215 8.050730846900447e-7 -10.028174975798255 1.057799513838266 4.308365921333141 -9.089263542998497 7.55564490420972 -4.062538122327864 -0.6908153710195939 -3.738826970956925 2.75555064740594 0.000007748293185614769 -7.400172899586342 -9.602358262640059e-7 1.461192177645521 3.230699197165621 2.6559121255896754 0.35576183609254375 2.018306703304209 2.623817503803486 0 0 0 -17.27457763922673 0.9615316088769537 -12.798951196724913 -21.97993065483526 5.14672778912898 -68.21787624125487 -3.3362279636841485 0.0012425021444167025 0.043071367727071146 -2.7252590349160144 -34.05003546620148 -4.544213101642377 -0.9431617917548426 0.03199557593270911 -8.441129692058187 1.4817782981969068 0.2188598836011517 -16.80487339234827 0.6655713732442622 0.043409371474539035 -7.4622234218307515 3.374669809764688 0.1100854615867097 -19.73084888475957 1.5433564350119666 0.23787605511903523 -17.52523688581744 1.629273909503828 0.26584659061706256 -18.535026009039818 3.1070126838868855 -1.1818085507443024 -29.171546676941706 1.4862210538865812 0.22019322101910993 -16.856911370012305 1.4089891379474115 0.19746833686675136 -15.956917048702277 1.7260392014151003 -0.6998596098928208 -24.092223088579722 2.371790906184224 0.5817349653149677 -27.56057353660253 2.061831496478877 0.43297616234880637 -23.7187516993718 0.09492276867228523 -1.8106980917294042 4.7618513710779125 24.88203682674641 10.293791657665116 21.829224994353776 3.505885880898993 -13.864506644663281 8.141788951200455 1.632426169791279 6.250580345793674 -0.06287972158810964 9.522951803485155 -6.33443219957585 -0.0417825663264183 0 0 0 0 0 0 0 0 0 14.52902048209482 1.2082880170387886 14.622023277894112 31.9091526702835 11.6801948550014 65.87957273243175 7.5784410870220995 0.006470754647512705 -0.0976097250110608 -0.15104502807810627 -16.97984472467641 5.48039506774886 0.4506942344984746 0.4970846718814962 3.2860071350865807 -1.1389289104272573 0.16896011514372214 16.87530818432561 -0.5122106849745751 0.03358155745691542 7.501858230906412 -3.416140041894985 0.2112228779018841 13.842654033736398 -1.217281026036907 0.19361075162371075 18.074575550668406 -1.2822250159601163 0.21544704568040318 19.07502250815192 -5.6111185119998215 0.9399513231491822 29.01129191159471 -1.4257420324728984 0.2682205073424747 21.307654121184324 -1.3680224693049907 0.24622694304117315 20.406112521711574 -1.3351461375785092 -0.7367501201021881 23.961521634572225 -1.8758487075832926 0.47746178916865756 28.5586905487243 -1.6868295672145248 0.38112120306169917 25.461400303433145 -0.7008757422934818 -1.3808966572542596 -4.734794331437077 -29.15678625609722 10.545153791328898 -21.718052983355747 -3.19966504176416 -15.806784329759035 -11.60966936267815
-0.047542620450258255 -0.09494910948486357 -0.01685657724738121 -6.889363854336079 -4.383201497547494 -3.909578816819908 15.4510968184885 -9.80258095120985 8.629004984243041 3.279633191520578 11.906879394239066 4.914157186260087 0.36753926286291777 1.169319909472846 -7.444302606044883 0.0000018219975279713087 -4.942507994550777 -0.0000021620495651413714 -10.035600230711431 1.156663416301874 4.30672970010129 -9.070344034080728 7.4125904791260036 -4.070230737942742 -1.1358656271110894 -3.6860524795428673 2.7875971895005347 -0.000002852029385600404 -7.391785656516736 -0.0000016855586759002494 1.4823925019364468 3.2262638473263063 2.6536142591749603 0.4313119840470911 2.0056895417782616 2.6108193113506886 0 0 0 -17.281446624465 0.9638281572545887 -12.777695184890105 -22.326114398472363 5.367253776599988 -67.8046414542252 -3.293423002951881 0.0012173427107137604 0.04252090398181934 -2.4829749054239074 -33.912833441138936 -4.850546793699657 -0.9192352938586513 0.02767933601800999 -8.50643444307193 1.478239265047237 0.21778782960320248 -16.763568616349637 0.661900144348207 0.042910133863357146 -7.420914664115487 3.3765977410076666 0.10789744254576603 -19.935000652052747 1.5438040219032307 0.2380218115456602 -17.530439137786512 1.6296923756894797 0.2659898927308805 -18.53995116836199 3.0821920084277825 -1.218279088532925 -29.344964110462858 1.4926967539093927 0.2221669202715912 -16.93243872839968 1.415473288314505 0.19932355810156696 -16.032409225163175 1.689715992112858 -0.7188047515567471 -24.142525622838274 2.395977665769924 0.5944337563229103 -27.865776256840267 2.0598497815601595 0.4321122788841383 -23.694498559285442 0.02387431110252549 -1.8482980267588747 4.780914758037752 24.830607811091706 10.276535375157028 21.825194988201922 3.49349974033288 -13.867755151467378 8.144256057264156 1.8666018755587028 6.276409637579819 0.22892331527879645 10.437665200953205 -6.310546894344313 1.1343324178329532 0 0 0 0 0 0 0 0 0 14.644286065137498 1.2151250711749035 14.582028485840555 31.522515896669127 11.58125229069892 65.60801882284842 7.294370979384447 0.005983016855771438 -0.09397059425122845 -0.4114819548336401 -18.085147401460272 6.515070199570672 0.4889575147706102 0.4868303122990174 3.303253229485171 -1.130171343634312 0.16632385094265087 16.741697311191796 -0.5031830195694341 0.03239780677025406 7.368861561674422 -3.372145378789737 0.20052008913014946 13.889424436385683 -1.2163413262233298 0.19331639814095208 18.060283689434016 -1.281317353895221 0.21512154218000976 19.06101194215714 -5.548955453310804 0.9265211762943807 28.96652714497201 -1.4215302082203258 0.26657652160255046 21.241684932244016 -1.3637918594653462 0.24466836494876085 20.34012043928302 -1.3662550993826699 -0.7120654441422647 23.751134272453367 -1.8506531815274883 0.46386599895551833 28.140850849308308 -1.6610436528097177 0.3689598974121046 25.04529424440894 -0.6531432240752846 -1.408388522159801 -4.682995867630857 -29.182455965127254 10.541421255595175 -21.724482284786056 -3.22070902269972 -15.80064411822071 -11.609585277689144
